<svg version="1" xmlns="http://www.w3.org/2000/svg" width="486.667" height="486.667" viewBox="0 0 365.000000 365.000000"><path d="M171 4.1c-40.9 3.7-71.1 20.5-92.1 51.1C67.1 72.4 57.1 97.4 55 115c-.6 5.2-1.8 13.1-2.5 17.5-6.8 38.6-10.3 54.7-14.5 66.9-1.1 3.3-2 6.4-2 6.9 0 1.7 5.9-4.4 9.2-9.6 1.7-2.6 3.2-4.6 3.4-4.4.8.8-2.8 19-5.7 28.7-3.9 13.1-5.2 33.7-2.6 41.7.8 2.7 2 9.1 2.6 14.3.7 5.2 1.4 10.2 1.7 11.2.6 2.2-3.1 20.5-5.7 27.3-1.1 2.9-3.1 7-4.4 8.9-3 4.4-2.1 4.5 3.4.6 4.1-3 8.3-10.1 9.6-16.5.6-2.7.7-2.8 1.7-1 2 3.4 2.1 15.5.3 21-3.3 10.2-3.4 10.6-2.3 9.9.5-.4 2.7-3.3 4.8-6.5 4.4-6.9 10.3-23.9 12.4-36.3.9-4.9 1.8-9.1 2.1-9.5.3-.3.3 7.3 0 16.9-1.3 41.5-1.4 48.4-.5 46 .5-1.4 2.4-7.4 4.4-13.5 3.2-10.2 3.4-11.1 2-14.3-2-5-1.8-13 .6-17.7 1.1-2.2 2.7-7.8 3.5-12.5 1.5-8.3 4.4-20 6.4-25.2l1-2.7 11.8 4.6c6.5 2.4 12.1 4.8 12.5 5.1.3.4-.4 5.9-1.7 12.2-2.9 14.1-2.9 14-.6 14 1.1 0 3.1 1.4 4.5 3.1 3.7 4.3 3.5 9.1-.4 13.1-1.6 1.6-3 3.2-3 3.5 0 2.2-3.9 7.8-7.2 10.2-3.3 2.4-3.7 3.1-2.3 3.8 1.3.8 1.5 2.8 1.3 13.2l-.3 12.3-7.8 2.3c-4.2 1.2-8 2.5-8.4 2.9-.3.3 43.1.6 96.5.6 53.5 0 97.2-.2 97.2-.5 0-.2-2.1-1.1-4.7-1.8l-4.8-1.4-.3-13.3c-.1-7.9.1-13.7.7-14.3.7-.7-.5-2.3-3.4-4.9-2.4-2.1-4.9-5.4-5.5-7.3-.6-1.9-2-4-3-4.5-1.1-.6-2.4-2.8-3.1-4.9-1.4-4.8.2-8.8 4.6-11.1 1.7-.8 3.2-1.6 3.4-1.7.2-.1-.9-5.7-2.3-12.4s-2.4-12.4-2.2-12.6c.3-.4 23.8-10.3 24.3-10.3s6.2 19 7.8 26c1 4.1 2.4 9.5 3.3 12 3.2 9.7 2.5 18-1.9 24.1-1 1.3-.3 3.7 3.4 12.5l4.6 10.9v-11c.1-6.1.4-13.7.8-16.9l.8-6 2.7 4.1c3.6 5.5 8.4 10.9 11.9 13.3l2.8 2.1-3.4-7.3c-4.4-9.7-7.5-19-7.5-22.9v-3.2l2.9 4.1c2.8 3.7 11.5 11.2 13.1 11.2.4 0-.3-2.6-1.6-5.7-1.2-3.2-3.1-10.1-4-15.3-1.5-8.1-1.6-10.8-.6-18.7.7-5.1 1.9-11.2 2.8-13.5 7.4-19.5 8.4-49.1 2.9-80.8-.7-4.1-1.1-7.7-.9-7.9.2-.2 1.4.4 2.5 1.5l2.2 1.9-.7-4c-1-5.4-4.9-18.9-7.4-25-1.1-2.8-2.7-9.5-3.6-15-2-12.1-8.6-35.9-13.1-47.5-9.6-24.9-23.6-44.5-41.4-58.1C236.3 11.3 200.2 1.4 171 4.1zM194.8 63c2.3 1.6 5.9 4.9 7.9 7.2 11.6 12.9 21.7 22.8 28.8 28.1 4.4 3.3 7.1 5.7 6 5.4-1.1-.3-9.4-1.1-18.5-1.7-9.1-.7-19.3-1.5-22.7-1.9-3.5-.4-6.3-.6-6.3-.5 0 .2 1 1.9 2.2 4 2.1 3.5 2.1 3.7.4 5-1.1.8-1.6 2-1.2 2.9.3.9-.8 3.3-2.8 6-1.9 2.5-3.7 5.4-4.1 6.5-.9 2.9-1.8 2.5-3.8-1.9-1-2.1-3.9-5.9-6.6-8.4-4.1-3.8-4.6-4.8-3.5-5.9.9-.9 1.1-2.2.5-4.3l-.8-3-12.9.2c-11.5.3-33.6 3.2-35.2 4.7-.3.3.7 1.7 2.1 3 1.5 1.4 2.7 3.3 2.7 4.3s-2.4 5.5-5.4 10c-2.9 4.6-6 10.3-6.7 12.8-.8 2.8-1.9 4.5-2.9 4.5-3-.1-27.1-4.7-27.7-5.3-1.3-1.3 14.8-15.7 27.2-24.2 12.5-8.7 19.7-15.3 38-34.7 7.7-8.2 14.3-12 24.9-14.3 10.6-2.3 15.7-1.9 20.4 1.5zm63.4 52.7c6.8 4.3 15.2 10.2 18.8 13.2 3.6 3 6.7 5.6 6.9 5.8.2.1.2.5 0 .8-.6.5-27.3 6.5-29.2 6.5-.8 0-2-1.9-2.7-4.3-1.7-5.9-4.7-11.5-8.6-16.4-2-2.4-3.4-5.3-3.4-6.8 0-3.2 3-7.6 4.7-7 .7.2 6.8 3.9 13.5 8.2zM227 117c9.9 1.8 10.7 2.2 13.7 5.7 6.3 7.5 10.3 18.5 10.3 28.8 0 11.1-6.8 22.3-16.5 27-5 2.5-6.4 2.7-13.3 2.3-10-.6-17.2-4.1-24.7-11.9-13.2-13.8-16.2-33.8-7.1-47.5 3.5-5.3 3.6-5.3 9.3-5.7 13.5-.8 18.4-.6 28.3 1.3zm-51.7 2.2c5.4 7.2 6.2 9.7 6.2 20.3 0 9.4-.2 10.4-3.6 17.6-4.4 9.1-11.5 16.6-19.6 20.6-5.1 2.4-6.9 2.8-14.8 2.8-10.2 0-13.1-1.1-19.3-7.3-4.6-4.6-7.9-11.3-8.6-17.3-1.2-11.4 3.2-25.5 10.8-34.3 4.2-4.9 6.4-5.3 29.8-5.5l16.7-.1 2.4 3.2zM98 140.5c8 1.4 14.5 2.5 14.6 2.5 0 0 .1 3.3.1 7.2 0 11 2.4 17.1 9.7 24.4 7.8 7.7 13.6 9.9 23.9 9.1 9.9-.9 17.8-4.9 25.5-13.1 3.3-3.6 7.2-9 8.6-12.1l2.7-5.6 3.5 7c4.1 8.3 13.2 17.2 21.4 21 4.6 2.1 7 2.6 14.5 2.6s9.7-.4 13.3-2.3c10.4-5.6 17-15.9 17.9-28.5l.6-7.4 16.1-3.6 16.1-3.7 2.8 3.3c4.1 4.7 9.9 16.9 10.4 22 1.3 11.3-17.5 42.8-33.4 56.2-3.2 2.7-6.8 5.9-8 7.2-5.3 5.5-25.7 16.3-38.8 20.6-17.1 5.6-40.1 7.3-57.7 4.2-11.5-2-27.1-7.5-40.1-14.3C101.9 227 82.2 206.3 71 184c-6.9-13.7-7.3-15.5-5.4-21.4.9-2.8 2.5-6.7 3.4-8.6 3-5.9 11.1-16 12.8-16 1 0 8.2 1.1 16.2 2.5z"/><path d="M195.8 135.1c-3.4 1.9-1.6 7.9 2.3 7.9 2.1 0 4.9-2.6 4.9-4.5 0-1.7-2.7-4.5-4.3-4.5-.7 0-2 .5-2.9 1.1zM164.8 135.1c-3.4 1.9-1.6 7.9 2.3 7.9 1.9 0 4.9-2.5 4.9-4.1 0-1.1-3.7-4.9-4.7-4.9-.5 0-1.6.5-2.5 1.1zM164.5 221.8c-2.5 2.5 6.9 5.7 17 5.7 10.5-.1 19.7-2.8 18.1-5.3-.4-.8-2-.6-4.9.4-7.2 2.6-16.4 2.8-23.4.6-3.4-1.1-6.5-1.7-6.8-1.4z"/></svg>