<svg xmlns="http://www.w3.org/2000/svg" version="1.1" x="0" y="0" width="56" height="56" viewBox="0 0 56 56" xml:space="preserve" style="fill:#999999;"><path d="M28 0C12.5 0 0 12.5 0 28c0 15.5 12.5 28 28 28s28-12.5 28-28C56 12.5 43.5 0 28 0zM32.7 39.7c0.9 0.8 1.8 2.4 1.8 4.8 0 3.5 0 6.3 0 7.2 0 0.5 0.3 1.1 0.9 1.2C33 53.6 30.6 54 28 54c-2.6 0-5-0.4-7.4-1.1 0.7-0.2 0.9-0.7 0.9-1.2 0-0.6 0-2.3 0-4.4 -7.2 1.6-8.8-3.5-8.8-3.5 -1.2-3-2.9-3.8-2.9-3.8 -2.4-1.6 0.2-1.6 0.2-1.6 2.6 0.2 4 2.7 4 2.7 2.3 4 6.1 2.8 7.6 2.2 0.2-1.7 0.9-2.8 1.7-3.5 -5.8-0.7-11.8-2.9-11.8-12.9 0-2.9 1-5.2 2.7-7 -0.3-0.7-1.2-3.3 0.3-6.9 0 0 2.2-0.7 7.2 2.7 2.1-0.6 4.3-0.9 6.5-0.9 2.2 0 4.4 0.3 6.5 0.9 5-3.4 7.1-2.7 7.1-2.7 1.4 3.6 0.5 6.3 0.3 6.9 1.7 1.8 2.7 4.2 2.7 7C44.6 36.8 38.5 39 32.7 39.7zM28 2C13.7 2 2.1 13.6 2 28 2 28 2 28 2 28 2 13.6 13.6 2 28 2s26 11.6 26 26c0 0 0 0 0 0C53.9 13.6 42.3 2 28 2z"/></svg>