<svg xmlns="http://www.w3.org/2000/svg" version="1.1" x="0" y="0" width="28" height="28" viewBox="0 0 28 28" xml:space="preserve" style="fill:#777777;"><path d="M15.7 21.5c-1 0-2-0.1-3-0.4 -0.1 0-0.2 0-0.3 0.1L9.8 23.9c-1.6 1.6-4.1 1.6-5.6 0 -1.6-1.6-1.6-4.1 0-5.6l5.6-5.6c0.5-0.5 1.1-0.8 1.8-1 0.7-0.2 1.4-0.2 2.1 0 0.6 0.2 1.2 0.5 1.7 1 0.4 0.4 0.7 0.9 0.9 1.4 0 0.1 0.1 0.1 0.2 0.2 0.1 0 0.2 0 0.2 0 0 0 0.1-0.1 0.1-0.1l1.8-1.8c0.1-0.1 0.1-0.2 0-0.3 -0.3-0.5-0.7-1-1.1-1.4 -0.5-0.5-1-0.9-1.6-1.2 -0.7-0.4-1.4-0.6-2.1-0.7 -1.5-0.3-3.1 0-4.5 0.7 -0.6 0.3-1.1 0.7-1.6 1.2L2 16.1c-2.7 2.7-2.7 7.1 0 9.8 2.7 2.7 7.1 2.7 9.9 0l4-4c0.1-0.1 0.1-0.2 0.1-0.3C15.9 21.6 15.8 21.5 15.7 21.5zM26 2c-2.7-2.7-7.1-2.7-9.8 0l-4 4c-0.1 0.1-0.1 0.2-0.1 0.3 0 0.1 0.1 0.2 0.2 0.1 1 0 2 0.1 3 0.4 0.1 0 0.2 0 0.3-0.1l2.7-2.7C19.8 2.6 22.3 2.6 23.9 4.2c1.6 1.6 1.6 4.1 0 5.6l-5.6 5.6c-0.5 0.5-1.1 0.8-1.8 1 -0.7 0.2-1.4 0.2-2.1 0 -0.6-0.2-1.2-0.5-1.7-1 -0.4-0.4-0.7-0.9-0.9-1.4 0-0.1-0.1-0.1-0.2-0.2 -0.1 0-0.2 0-0.2 0 0 0-0.1 0.1-0.1 0.1l-1.8 1.8c-0.1 0.1-0.1 0.2 0 0.3 0.3 0.5 0.7 1 1.1 1.4 0.5 0.5 1 0.9 1.6 1.2 0.7 0.4 1.4 0.6 2.1 0.7 1.5 0.3 3.1 0 4.5-0.7 0.6-0.3 1.1-0.7 1.6-1.2l5.6-5.6C28.7 9.2 28.7 4.8 26 2z"/></svg>