<svg xmlns="http://www.w3.org/2000/svg" version="1.1" x="0" y="0" width="56" height="56" viewBox="0 0 56 56" xml:space="preserve" style="fill:#999999;"><path d="M28 0C12.5 0 0 12.5 0 28s12.5 28 28 28 28-12.5 28-28S43.5 0 28 0zM41.7 21.5c0 0.3 0 0.6 0 0.9 0 8.7-6.6 18.7-18.7 18.7 -3.7 0-7.2-1.1-10.1-2.9 0.5 0.1 1 0.1 1.6 0.1 3.1 0 5.9-1.1 8.1-2.8 -2.9-0.1-5.3-2-6.1-4.6 0.4 0.1 0.8 0.1 1.2 0.1 0.6 0 1.1-0.1 1.7-0.2 -3-0.6-5.3-3.3-5.3-6.4 0 0 0-0.1 0-0.1 1.1 0.5 2 0.8 3 0.8 -1.8-1.2-2.8-3.2-2.8-5.5 0-1.2 0.3-2.3 0.9-3.3 3.2 4 8.1 6.6 13.5 6.9 -0.1-0.5-0.2-1-0.2-1.5 0-3.6 2.9-6.6 6.6-6.6 1.9 0 3.6 0.8 4.8 2.1 1.5-0.3 2.9-0.8 4.2-1.6 -0.5 1.5-1.5 2.8-2.9 3.6 1.3-0.2 2.6-0.5 3.8-1C44.1 19.4 43 20.5 41.7 21.5z"/></svg>